HIERARCHY
ROOT root
{
	OFFSET	0	13.1	24.9
	CHANNELS 6  Xposition Yposition Zposition Xrotation Yrotation Zrotation
	JOINT spine_1
	{
		OFFSET	0	9.99999	0
		CHANNELS 3  Xrotation Yrotation Zrotation
		JOINT spine_2
		{
			OFFSET	0	112	-10
			CHANNELS 3  Xrotation Yrotation Zrotation
			JOINT spine_3
			{
				OFFSET	0	206.5	19.3
				CHANNELS 3  Xrotation Yrotation Zrotation
				JOINT spine_4
				{
					OFFSET	0	110.4	14.6
					CHANNELS 3  Xrotation Yrotation Zrotation
					JOINT neck_1
					{
						OFFSET	0	71.8	-50.3
						CHANNELS 3  Xrotation Yrotation Zrotation
						JOINT neck_2
						{
							OFFSET	0	86.2	-25.8
							CHANNELS 3  Xrotation Yrotation Zrotation
							JOINT head_ee
							{
								OFFSET	0	179.8	-8.7
								CHANNELS 3  Xrotation Yrotation Zrotation
								End Site
								{
									OFFSET	1	0	0
								}
							}
						}
					}
					JOINT left_clavicle
					{
						OFFSET	-43.2	22.4	-70.8
						CHANNELS 3  Xrotation Yrotation Zrotation
						JOINT left_shoulder
						{
							OFFSET	-93.9	-5.79999	48.7
							CHANNELS 3  Xrotation Yrotation Zrotation
							JOINT left_elbow
							{
								OFFSET	-291.4	-30.8	15.2
								CHANNELS 3  Xrotation Yrotation Zrotation
								JOINT left_lowarm_twist
								{
									OFFSET	-110.7	-3.89999	13.6
									CHANNELS 3  Xrotation Yrotation Zrotation
									JOINT left_hand
									{
										OFFSET	-110.7	-3.89999	13.6
										CHANNELS 3  Xrotation Yrotation Zrotation
										JOINT left_ee
										{
											OFFSET	-80.8	-5.10001	12.1
											CHANNELS 3  Xrotation Yrotation Zrotation
											End Site
											{
												OFFSET	1	0	0
											}
										}
									}
								}
							}
						}
					}
					JOINT right_clavicle
					{
						OFFSET	43.2	22.4	-70.8
						CHANNELS 3  Xrotation Yrotation Zrotation
						JOINT right_shoulder
						{
							OFFSET	93.9	-5.79999	48.7
							CHANNELS 3  Xrotation Yrotation Zrotation
							JOINT right_elbow
							{
								OFFSET	291.4	-30.8	15.2
								CHANNELS 3  Xrotation Yrotation Zrotation
								JOINT right_lowarm_twist
								{
									OFFSET	110.7	-3.89999	13.6
									CHANNELS 3  Xrotation Yrotation Zrotation
									JOINT right_hand
									{
										OFFSET	110.7	-3.89999	13.6
										CHANNELS 3  Xrotation Yrotation Zrotation
										JOINT right_ee
										{
											OFFSET	80.8	-5.10001	12.1
											CHANNELS 3  Xrotation Yrotation Zrotation
											End Site
											{
												OFFSET	1	0	0
											}
										}
									}
								}
							}
						}
					}
				}
			}
		}
	}
	JOINT left_hip
	{
		OFFSET	-82.8	-127.5	0.300001
		CHANNELS 3  Xrotation Yrotation Zrotation
		JOINT left_knee
		{
			OFFSET	-28.2	-396.7	2.2
			CHANNELS 3  Xrotation Yrotation Zrotation
			JOINT left_ankle
			{
				OFFSET	-11.7	-411.3	35.4
				CHANNELS 3  Xrotation Yrotation Zrotation
				JOINT left_toes
				{
					OFFSET	0	-60	-88.6
					CHANNELS 3  Xrotation Yrotation Zrotation
					JOINT left_foot_ee
					{
						OFFSET	-22.5	-16.5	-42.2
						CHANNELS 3  Xrotation Yrotation Zrotation
						End Site
						{
							OFFSET	1	0	0
						}
					}
				}
			}
		}
	}
	JOINT right_hip
	{
		OFFSET	82.8	-127.5	0.300001
		CHANNELS 3  Xrotation Yrotation Zrotation
		JOINT right_knee
		{
			OFFSET	28.2	-396.7	2.2
			CHANNELS 3  Xrotation Yrotation Zrotation
			JOINT right_ankle
			{
				OFFSET	11.7	-411.3	35.4
				CHANNELS 3  Xrotation Yrotation Zrotation
				JOINT right_toes
				{
					OFFSET	0	-60	-88.6
					CHANNELS 3  Xrotation Yrotation Zrotation
					JOINT right_foot_ee
					{
						OFFSET	22.5	-16.5	-42.2
						CHANNELS 3  Xrotation Yrotation Zrotation
						End Site
						{
							OFFSET	1	0	0
						}
					}
				}
			}
		}
	}
}
MOTION
Frames: 9
Frame Time: 0.02
2722.47 711.238 -1048.04 -19.823 41.7346 16.179 5.54821 0.434145 0.361185 5.54819 0.410282 0.388078 5.55097 0.363107 0.432538 5.55096 0.426861 0.369764 -8.40313 8.71743 -5.11202 -8.36584 19.868 -3.09464 -0.0 0.0 -0.0 -3.31234 10.2979 -4.49414 -19.859 -18.2735 89.5242 0.195899 -5.54293 0.00948329 -8.17254 -0.358595 0.980449 -1.95254 17.2114 -4.89861 -0.0 0.0 -0.0 11.8069 14.3779 -23.7773 61.936 -68.3009 -29.2767 0.19158 5.42144 -0.00907058 85.2237 4.45333 8.8764 -3.1924 -26.6669 7.18365 0.0 0.0 0.0 42.6416 7.51664 -10.1699 -60.118 -2.21274 8.53844 27.5064 16.6367 -3.67387 -9.73576 0.0 0.0 -0.0 0.0 -0.0 37.7302 23.1594 -11.997 -28.5857 -0.0956334 -4.34052 7.35016 -1.86 1.06014 30.8379 -0.0 -0.0 0.0 0.0 0.0 
2710.68 711.276 -1057.04 -19.8142 42.063 16.1995 5.62994 0.507159 0.366014 5.62988 0.482841 0.397544 5.63326 0.434753 0.44963 5.63333 0.500307 0.375326 -10.6575 9.5358 -4.38259 -10.7685 20.8989 -1.73961 -0.0 0.0 -0.0 -4.06244 10.877 -5.67817 -19.5326 -17.697 90.8502 0.203721 -5.76277 0.0102537 -8.05606 -0.352508 0.966852 -1.777 17.0221 -3.91764 -0.0 0.0 -0.0 11.8586 15.4828 -23.8571 62.1651 -68.5624 -30.5037 0.209671 5.92992 -0.0108598 85.1161 4.44044 8.87147 -3.29525 -27.8774 7.05642 0.0 0.0 0.0 45.5021 4.82118 -10.4231 -58.8084 -2.0727 8.39286 26.9172 17.661 -3.61825 -10.1221 0.0 0.0 -0.0 0.0 -0.0 36.27 22.1763 -11.5555 -28.6569 -0.0931617 -4.35117 8.38913 -0.970417 1.20797 31.0083 -0.0 -0.0 0.0 0.0 0.0 
2688.03 709.896 -1067.51 -20.9108 42.9461 17.1108 5.95987 0.550265 0.331621 5.95977 0.528048 0.365964 5.96322 0.485673 0.420579 5.96339 0.546 0.338597 -12.2938 10.0599 -3.92324 -12.522 21.5875 -0.817656 -0.0 0.0 -0.0 -4.92427 11.847 -6.94863 -20.3685 -17.1946 91.4659 0.203407 -5.75396 0.0102223 -7.94327 -0.34664 0.953673 -1.63908 16.8818 -3.14148 -0.0 0.0 -0.0 11.7854 16.0498 -23.6672 62.5884 -68.2704 -31.002 0.219105 6.19469 -0.0118561 85.1167 4.4405 8.8715 -3.38184 -28.8377 6.96899 0.0 0.0 0.0 47.8134 3.18417 -11.1284 -57.3881 -1.92465 8.23143 26.4534 18.4004 -3.57361 -10.3607 0.0 0.0 -0.0 0.0 -0.0 33.7901 21.4234 -10.1889 -28.4356 -0.100798 -4.31807 9.52628 -0.222549 1.36858 31.142 -0.0 -0.0 0.0 0.0 0.0 
2674.29 708.329 -1073.57 -20.6403 42.6584 16.6592 6.25895 0.563486 0.211345 6.25881 0.548896 0.246774 6.26132 0.52078 0.301617 6.26163 0.561879 0.215583 -12.7853 10.4191 -3.58587 -13.0634 22.0559 -0.281178 -0.0 0.0 -0.0 -5.19558 13.028 -7.12514 -21.0209 -16.0003 91.7118 0.21012 -5.94251 0.0109062 -7.87393 -0.343045 0.945566 -1.48795 16.6085 -2.3446 -0.0 0.0 -0.0 11.9841 16.8008 -24.0875 62.7138 -68.3477 -31.7436 0.228377 6.45465 -0.0128775 84.9995 4.42646 8.86611 -3.40773 -29.1388 6.93213 0.0 0.0 0.0 50.6763 2.14927 -10.8324 -56.3211 -1.8161 8.10781 26.1833 18.9898 -3.54974 -10.5237 0.0 0.0 -0.0 0.0 -0.0 32.1811 19.3749 -9.35186 -27.8245 -0.121226 -4.2265 9.8245 -0.0467717 1.41051 30.8427 -0.0 -0.0 0.0 0.0 0.0 
2657.32 701.645 -1080.93 -20.8259 42.4081 16.5407 6.33015 0.565549 0.234918 6.33001 0.549455 0.27043 6.33274 0.519322 0.324559 6.33304 0.564062 0.238467 -13.7347 11.7416 -1.28941 -14.1444 23.1733 2.53997 -0.0 0.0 -0.0 -4.94775 14.3919 -6.37318 -21.9737 -11.437 91.0141 0.194738 -5.51028 0.00937145 -8.58343 -0.380289 1.02832 -1.29561 16.663 -1.14381 -0.0 0.0 -0.0 12.1284 17.9627 -24.3583 63.7964 -68.1693 -33.4846 0.209198 5.91663 -0.0108111 85.1178 4.44064 8.87155 -3.57601 -29.196 7.80716 0.0 0.0 0.0 53.4236 -1.44534 -9.8302 -55.5648 -1.74057 8.01899 25.7371 19.2369 -3.50029 -10.927 0.0 0.0 -0.0 0.0 -0.0 29.8402 17.2929 -8.07923 -25.98 -0.176933 -3.94892 16.3249 0.982185 2.28971 30.0092 -0.0 -0.0 0.0 0.0 0.0 
2633.56 693.429 -1082.74 -21.9276 41.4694 17.5521 6.69144 0.330191 -0.264774 6.69141 0.34637 -0.243227 6.68999 0.367881 -0.209273 6.69009 0.330213 -0.264746 -13.295 12.4929 0.589423 -13.6898 23.4294 4.46814 -0.0 0.0 -0.0 -5.47536 19.0038 -6.03469 -24.6938 -8.03383 90.4248 0.200149 -5.6624 0.00989823 -10.6929 -0.497053 1.27158 -0.98199 13.5446 -0.589781 -0.0 0.0 -0.0 12.1257 18.4482 -24.324 65.8428 -68.2793 -33.5168 0.214693 6.07089 -0.0113848 85.2628 4.45802 8.87818 -4.07706 -29.3913 10.404 0.0 0.0 0.0 54.9712 -4.75455 -8.71803 -54.4249 -1.62899 7.88329 25.4017 19.6851 -3.4665 -11.2118 0.0 0.0 -0.0 0.0 -0.0 28.099 14.2189 -6.30949 -23.545 -0.236729 -3.58005 22.4381 3.29636 3.07671 29.617 -0.0 -0.0 0.0 0.0 0.0 
2616.72 690.145 -1082.2 -23.099 41.9396 18.0773 6.73419 0.0455101 -0.25348 6.73423 0.0615474 -0.25007 6.73392 0.0848033 -0.24317 6.73384 0.0453351 -0.253511 -13.4527 12.4927 0.866137 -13.8505 23.271 4.76301 -0.0 0.0 -0.0 -3.9629 19.349 -3.65224 -27.0895 -3.34923 89.0355 0.200326 -5.66736 0.00991558 -11.2078 -0.526907 1.33029 -0.663319 11.9732 0.735606 -0.0 0.0 -0.0 12.0185 19.2715 -24.0262 66.7116 -67.9639 -34.6438 0.206018 5.82731 -0.0104856 84.6325 4.38258 8.84905 -4.38703 -29.1013 12.2941 0.0 0.0 0.0 56.3278 -9.59852 -6.7662 -50.2967 -1.24811 7.37411 20.2736 21.5485 -2.85456 -12.5743 0.0 0.0 -0.0 0.0 -0.0 25.9001 11.9155 -4.36124 -20.9579 -0.283023 -3.18579 24.8816 5.19855 3.38904 28.6031 -0.0 -0.0 0.0 0.0 0.0 
2592.17 686.796 -1086.97 -24.6643 42.3239 19.5138 6.95533 -0.176393 -0.608518 6.95552 -0.137315 -0.618509 6.95672 -0.0809622 -0.628373 6.95621 -0.179184 -0.607702 -13.0982 12.4887 1.08355 -13.4662 23.0999 4.88849 -0.0 0.0 -0.0 -3.06377 21.333 -1.90857 -27.7508 0.155644 87.0065 0.228205 -6.44984 0.0128582 -10.9244 -0.51041 1.29801 0.0927509 8.84184 4.27112 -0.0 0.0 -0.0 11.6707 18.561 -23.2749 67.6201 -67.7581 -35.1736 0.257055 7.25703 -0.016301 84.7152 4.39245 8.85292 -4.62002 -29.0273 13.6355 0.0 0.0 0.0 53.421 -13.7887 -6.36985 -38.5875 -0.379357 5.79953 14.095 23.4217 -2.05096 -14.7594 0.0 0.0 -0.0 0.0 -0.0 23.6446 9.87153 -2.41136 -17.9361 -0.314495 -2.72326 26.1002 14.1244 3.69372 27.0147 -0.0 -0.0 0.0 0.0 0.0 
2574.71 686.05 -1088.6 -26.0085 41.4349 20.2525 7.22253 -0.170702 -0.674909 7.22278 -0.127411 -0.684403 7.22392 -0.0683866 -0.692794 7.2233 -0.17694 -0.673301 -12.6012 12.4113 1.34197 -12.9256 22.7467 5.00017 -0.0 0.0 -0.0 -2.24737 23.4473 -0.364368 -29.6703 4.35771 84.4301 0.221924 -6.27376 0.0121623 -10.488 -0.485314 1.24813 0.371394 7.44718 5.52022 -0.0 0.0 -0.0 11.4287 18.0281 -22.755 67.8941 -67.8334 -36.4764 0.193577 5.47761 -0.00926024 84.1444 4.32437 8.82592 -4.9588 -29.5035 15.1847 0.0 0.0 0.0 52.0467 -18.5756 -5.5374 -30.4865 0.0251266 4.62369 10.5339 24.2586 -1.55784 -16.7103 0.0 0.0 -0.0 0.0 -0.0 23.495 7.3875 -1.71885 -16.0579 -0.321749 -2.4352 30.7202 13.4491 4.20443 28.2352 -0.0 -0.0 0.0 0.0 0.0 
